<svg width="256" height="350" viewBox="0 0 256 350" fill="none" xmlns="http://www.w3.org/2000/svg">
<g filter="url(#filter0_d_5_6)">
<path d="M225.28 10H30.72C19.4092 10 10.24 18.9543 10.24 30V320C10.24 331.046 19.4092 340 30.72 340H225.28C236.591 340 245.76 331.046 245.76 320V30C245.76 18.9543 236.591 10 225.28 10Z" fill="#970606"/>
<path d="M30.72 10.5H225.28C236.326 10.5 245.26 19.2416 245.26 30V320C245.26 330.758 236.326 339.5 225.28 339.5H30.72C19.6741 339.5 10.74 330.758 10.74 320V30C10.74 19.2416 19.6741 10.5 30.72 10.5Z" stroke="white"/>
</g>
<path d="M128 315C184.554 315 230.4 252.32 230.4 175C230.4 97.6801 184.554 35 128 35C71.4461 35 25.6 97.6801 25.6 175C25.6 252.32 71.4461 315 128 315Z" fill="white" stroke="#970606" stroke-width="5"/>
<path d="M65.1227 188.573L75.6836 178.26L108.122 209.938C111.765 213.495 114.082 217.457 115.073 221.824C116.082 226.175 115.797 230.613 114.22 235.138C112.626 239.648 109.765 243.919 105.635 247.953C101.488 252.002 97.1062 254.804 92.4883 256.36C87.8542 257.901 83.3095 258.179 78.8543 257.194C74.399 256.21 70.3503 253.939 66.708 250.382L34.2693 218.704L44.8302 208.39L76.3665 239.187C78.2689 241.045 80.3746 242.292 82.6835 242.927C85.0087 243.546 87.3583 243.522 89.7322 242.855C92.1062 242.189 94.3094 240.863 96.3419 238.878C98.3907 236.877 99.7484 234.725 100.415 232.423C101.098 230.105 101.114 227.818 100.464 225.563C99.8297 223.293 98.5614 221.228 96.659 219.371L65.1227 188.573ZM126.153 128.974L176.103 177.754L166.982 186.662L113.811 177.182L113.445 177.539L144.884 208.241L134.323 218.555L84.3725 169.775L93.6407 160.724L146.616 170.346L147.055 169.918L115.641 139.239L126.153 128.974ZM205.756 100.017C211.203 105.336 214.804 110.87 216.56 116.618C218.333 122.35 218.455 127.932 216.926 133.362C215.398 138.761 212.43 143.612 208.024 147.915C203.585 152.25 198.593 155.156 193.048 156.633C187.504 158.11 181.797 157.983 175.927 156.252C170.057 154.521 164.406 151.004 158.976 145.7C153.528 140.381 149.919 134.855 148.146 129.123C146.374 123.39 146.252 117.825 147.781 112.426C149.293 107.011 152.268 102.136 156.707 97.8014C161.114 93.4982 166.089 90.6083 171.634 89.1315C177.179 87.623 182.886 87.7342 188.756 89.465C194.642 91.1799 200.309 94.6971 205.756 100.017ZM195.048 110.473C191.52 107.027 188.016 104.637 184.536 103.303C181.073 101.954 177.764 101.596 174.61 102.232C171.455 102.867 168.601 104.431 166.049 106.924C163.496 109.417 161.894 112.204 161.244 115.284C160.593 118.365 160.951 121.604 162.317 125.002C163.699 128.384 166.154 131.798 169.683 135.244C173.211 138.69 176.707 141.087 180.171 142.437C183.65 143.771 186.967 144.12 190.122 143.485C193.276 142.85 196.13 141.286 198.683 138.793C201.235 136.3 202.837 133.513 203.487 130.433C204.138 127.352 203.772 124.121 202.39 120.739C201.024 117.34 198.577 113.919 195.048 110.473Z" fill="#970606"/>
<defs>
<filter id="filter0_d_5_6" x="6.24001" y="10" width="243.52" height="338" filterUnits="userSpaceOnUse" color-interpolation-filters="sRGB">
<feFlood flood-opacity="0" result="BackgroundImageFix"/>
<feColorMatrix in="SourceAlpha" type="matrix" values="0 0 0 0 0 0 0 0 0 0 0 0 0 0 0 0 0 0 127 0" result="hardAlpha"/>
<feOffset dy="4"/>
<feGaussianBlur stdDeviation="2"/>
<feComposite in2="hardAlpha" operator="out"/>
<feColorMatrix type="matrix" values="0 0 0 0 0 0 0 0 0 0 0 0 0 0 0 0 0 0 0.25 0"/>
<feBlend mode="normal" in2="BackgroundImageFix" result="effect1_dropShadow_5_6"/>
<feBlend mode="normal" in="SourceGraphic" in2="effect1_dropShadow_5_6" result="shape"/>
</filter>
</defs>
</svg>
